<svg data-v-d3f97b9e="" xmlns="http://www.w3.org/2000/svg" viewBox="0 0 237 90"><!----><!----><!----><g data-v-d3f97b9e="" id="3418a998-b91f-4e48-aa86-c890c5f62193" fill="white" transform="matrix(5.92300092025334,0,0,5.92300092025334,74.26034906934801,-19.664362898256698)"><path d="M2.93 3.51L2.93 3.51L4.93 3.49L4.93 3.49Q6.73 3.49 7.72 4.03L7.72 4.03L7.72 4.03Q8.71 4.58 8.71 5.87L8.71 5.87L8.71 5.87Q8.71 7.17 7.91 7.95L7.91 7.95L7.91 7.95Q7.11 8.74 5.78 8.86L5.78 8.86L7.38 10.72L7.38 10.72Q8.40 11.91 8.95 12.36L8.95 12.36L8.95 12.36Q9.51 12.81 9.95 12.95L9.95 12.95L9.95 13.29L7.50 13.29L7.50 13.29Q7.31 12.99 6.54 12.01L6.54 12.01L4.02 8.95L4.02 8.95Q3.85 8.95 3.78 8.93L3.78 8.93L3.78 10.88L3.78 10.88Q3.78 12.25 4.00 12.98L4.00 12.98L4.00 13.29L1.51 13.29L1.51 12.98L1.51 12.98Q1.79 12.25 1.79 11.02L1.79 11.02L1.79 5.99L1.79 5.99Q1.79 4.59 1.55 3.79L1.55 3.79L1.55 3.49L1.55 3.49Q1.95 3.51 2.93 3.51ZM6.64 6.12L6.64 6.12L6.64 6.12Q6.64 5.14 6.21 4.77L6.21 4.77L6.21 4.77Q5.78 4.40 4.88 4.40L4.88 4.40L4.88 4.40Q3.98 4.40 3.81 4.41L3.81 4.41L3.81 4.41Q3.78 4.83 3.78 8.05L3.78 8.05L3.78 8.05Q4.10 8.09 4.58 8.09L4.58 8.09L4.58 8.09Q5.70 8.09 6.17 7.59L6.17 7.59L6.17 7.59Q6.64 7.10 6.64 6.12ZM12.56 3.51L12.56 3.51L14.90 3.49L14.90 3.49Q16.87 3.49 17.90 4.10L17.90 4.10L17.90 4.10Q18.93 4.72 18.93 6.24L18.93 6.24L18.93 6.24Q18.93 7.76 17.72 8.62L17.72 8.62L17.72 8.62Q16.52 9.48 14.67 9.48L14.67 9.48L14.67 9.48Q14.17 9.48 13.68 9.38L13.68 9.38L13.68 11.21L13.68 11.21Q13.68 12.25 13.96 12.98L13.96 12.98L13.96 13.29L11.41 13.29L11.41 12.98L11.41 12.98Q11.69 12.18 11.69 11.02L11.69 11.02L11.69 5.99L11.69 5.99Q11.69 4.59 11.45 3.79L11.45 3.79L11.45 3.49L11.45 3.49Q12.40 3.51 12.56 3.51ZM16.83 6.38L16.83 6.38L16.83 6.38Q16.83 5.32 16.37 4.86L16.37 4.86L16.37 4.86Q15.90 4.40 14.89 4.40L14.89 4.40L14.89 4.40Q13.87 4.40 13.71 4.41L13.71 4.41L13.71 4.41Q13.68 4.83 13.68 6.73L13.68 6.73L13.68 8.53L13.68 8.53Q14.13 8.65 14.66 8.65L14.66 8.65L14.66 8.65Q15.72 8.65 16.27 8.05L16.27 8.05L16.27 8.05Q16.83 7.45 16.83 6.38ZM22.50 6.33L22.50 6.33L22.50 6.33Q22.86 6.65 23.30 6.85L23.30 6.85L23.30 6.85Q23.73 7.06 24.07 7.21L24.07 7.21L24.07 7.21Q24.42 7.36 24.51 7.41L24.51 7.41L24.51 7.41Q24.61 7.46 24.98 7.63L24.98 7.63L24.98 7.63Q25.35 7.80 25.45 7.85L25.45 7.85L25.45 7.85Q25.55 7.90 25.89 8.09L25.89 8.09L25.89 8.09Q26.22 8.29 26.35 8.41L26.35 8.41L26.35 8.41Q26.47 8.54 26.71 8.79L26.71 8.79L26.71 8.79Q26.95 9.03 27.05 9.25L27.05 9.25L27.05 9.25Q27.31 9.88 27.31 10.53L27.31 10.53L27.31 10.53Q27.31 11.97 26.29 12.71L26.29 12.71L26.29 12.71Q25.26 13.45 23.47 13.45L23.47 13.45L23.47 13.45Q21.69 13.45 20.22 12.47L20.22 12.47L20.22 12.47Q20.26 11.47 20.99 10.58L20.99 10.58L20.99 10.58Q21.66 11.33 22.50 11.80L22.50 11.80L22.50 11.80Q23.34 12.28 24.03 12.28L24.03 12.28L24.03 12.28Q24.72 12.28 25.26 11.97L25.26 11.97L25.26 11.97Q25.52 11.62 25.52 10.88L25.52 10.88L25.52 10.88Q25.52 10.32 25.20 9.98L25.20 9.98L25.20 9.98Q25.00 9.80 24.87 9.68L24.87 9.68L24.87 9.68Q24.74 9.56 24.40 9.39L24.40 9.39L24.40 9.39Q24.07 9.21 23.04 8.76L23.04 8.76L23.04 8.76Q22.01 8.30 21.60 8.04L21.60 8.04L21.60 8.04Q20.44 7.25 20.44 5.93L20.44 5.93L20.44 5.93Q20.44 4.61 21.44 3.96L21.44 3.96L21.44 3.96Q22.44 3.32 23.93 3.32L23.93 3.32L23.93 3.32Q25.41 3.32 27.05 4.02L27.05 4.02L27.05 4.02Q26.88 4.98 26.33 5.89L26.33 5.89L26.33 5.89Q25.62 5.24 24.82 4.82L24.82 4.82L24.82 4.82Q24.02 4.41 23.38 4.41L23.38 4.41L23.38 4.41Q22.74 4.41 22.36 4.62L22.36 4.62L22.36 4.62Q22.13 4.89 22.13 5.45L22.13 5.45L22.13 5.45Q22.13 6.01 22.50 6.33Z"></path></g><!----><g data-v-d3f97b9e="" id="b848b7de-c613-4fb7-896d-e48424145319" transform="matrix(1,0,0,1,-8.602039337158203,1)" stroke="none" fill="white"><path d="M66.143 36.478a7.11 7.11 0 0 0-.983-.071 6.95 6.95 0 0 0-3.041.711c0-.017.004-.035.004-.052a6.995 6.995 0 0 0-7-6.987 6.954 6.954 0 0 0-3.129.758l2.982-22.882A6.995 6.995 0 0 0 48.043 0a6.99 6.99 0 0 0-6.92 6.028l-5 33.249L27.42 7.389a6.998 6.998 0 0 0-8.57-4.944 6.999 6.999 0 0 0-4.939 8.57l5.846 24.242a10.05 10.05 0 0 0-1.866.526c-.258.098-.515.196-.782.318-.479.22-.801.677-.843 1.203 0 0-.004.052-.028.227-.17 1.212-1.238 7.071-6.975 14.416v.002a1.442 1.442 0 0 0-.234.452c-.003.012-.01.022-.015.035a1.453 1.453 0 0 0-.051.489c0 .013-.005.022-.004.034.008.063.745 9.061 3.721 18.184 1.494 4.565 3.537 9.172 6.437 12.742C21.99 87.439 25.876 90 30.746 90h.022c.08-.002.138-.002.178-.002L55.852 90c8.869-.002 16.058-7.193 16.058-16.061l.186-29.566a6.998 6.998 0 0 0-5.953-7.895zm-11.026-3.5h.006a4.095 4.095 0 0 1 4.062 4.669l-.416 2.96L57.125 52.3l-.199 1.427-.338 2.402c-.004.03-.016.057-.02.085a4.094 4.094 0 0 1-4.029 3.438c-.193 0-.387-.01-.576-.036a4.098 4.098 0 0 1-3.457-3.319c-.002-.013-.006-.025-.01-.039a4.03 4.03 0 0 1-.022-1.267l.893-6.349 1.127-8.021.58-4.117c.055-.393.172-.76.326-1.104.016-.038.026-.079.045-.115a4.107 4.107 0 0 1 3.672-2.307zM24.291 58.277c-.015-.016-.034-.035-.054-.061a1.45 1.45 0 0 1-.188-.347l-.035-.089-.003-.01c-.1-.299-.187-.752-.197-1.447 0-.081.006-.176.008-.262.003-.105.005-.209.013-.323.006-.095.02-.199.029-.3.013-.135.027-.269.046-.412.015-.108.035-.229.054-.344a16.964 16.964 0 0 1 .167-.868l.051-.215.88 4.902-.771-.224zM69.01 73.939c-.01 7.267-5.893 13.148-13.158 13.163H30.966l-.198.002c-3.826-.013-6.83-1.912-9.403-5.047-3.836-4.688-6.293-12.069-7.695-18.24a92.835 92.835 0 0 1-1.442-7.881 77.139 77.139 0 0 1-.326-2.662c.093-.123.176-.241.268-.363.19-.253.378-.508.558-.758.127-.178.248-.351.37-.525.174-.251.349-.5.514-.747.111-.168.218-.334.326-.5.161-.247.322-.494.473-.737.098-.158.19-.313.284-.471.147-.245.296-.488.434-.729.085-.147.165-.291.246-.437.136-.244.271-.485.397-.721l.208-.4c.124-.237.248-.478.362-.709.063-.123.117-.243.176-.364.112-.234.225-.469.328-.694.05-.11.095-.217.145-.326.101-.23.203-.459.295-.68.041-.098.077-.19.116-.286.091-.225.183-.448.265-.662.032-.083.06-.163.09-.245.082-.218.163-.436.235-.643l.068-.198c.072-.212.144-.422.207-.622.019-.058.033-.11.051-.167.063-.201.124-.4.178-.587.013-.044.022-.083.035-.126.054-.19.105-.378.15-.553.011-.044.021-.082.03-.125.042-.166.083-.33.117-.48.016-.067.027-.124.041-.187.025-.115.052-.233.073-.336.033-.164.061-.314.086-.449a6.72 6.72 0 0 1 1.374-.363l.034-.004a4.32 4.32 0 0 1 .579-.048c.339 0 .615.048.854.124.372.123.671.317.942.594.114.116.224.243.331.391.292.389.516.904.695 1.461.442 1.382.577 3.055.556 3.938 0 .148-.002.271-.004.368v.004c-.077.159-.141.304-.214.458-.156.331-.313.664-.458.979-.3.664-.563 1.286-.809 1.889-1.477 3.636-1.988 6.203-1.993 8.092-.007.336.017.64.047.935.222 2.186 1.365 3.278 1.933 3.595.093.051.169.08.225.094l.047.016.083.03 2.764.817.481.143c.129.04.261.057.393.059l.021.002c.026 0 .05-.01.076-.012.051-.003.102-.007.151-.015.444.01 2.527.1 4.832.819 2.619.819 5.386 2.379 6.744 5.336a1.45 1.45 0 0 0 1.318.846c.202 0 .407-.043.604-.135a1.447 1.447 0 0 0 .709-1.922c-1.858-4.012-5.494-5.953-8.513-6.891a21.998 21.998 0 0 0-4.706-.9l-.884-4.926-.385-2.146-.9-3.603c.131-.306.254-.602.402-.927.229-.502.471-1.022.735-1.563l.003-.008.033-.067c.084-.175.13-.349.144-.541.001-.021.012-.196.017-.492.002-.098.003-.21.003-.333-.005-.28-.016-.632-.035-1.013a17.444 17.444 0 0 0-.093-1.163c-.169-1.513-.586-3.343-1.655-4.899a5.903 5.903 0 0 0-.673-.78 5.175 5.175 0 0 0-2.064-1.282L16.718 10.3a4.24 4.24 0 0 1-.151-1.1 4.103 4.103 0 0 1 4.098-4.096 4.1 4.1 0 0 1 3.958 3.04l9.513 34.858.651 2.387c.041.15.109.283.19.407.314.479.889.737 1.473.629.021.004.04.013.061.017a1.453 1.453 0 0 0 1.649-1.218l.129-.862.51-3.395 5.189-34.524a4.1 4.1 0 0 1 4.628-3.503 4.1 4.1 0 0 1 3.485 4.629l-6.498 47.017a6.709 6.709 0 0 0-.065.968 6.992 6.992 0 0 0 7 7 6.997 6.997 0 0 0 6.574-4.646 6.95 6.95 0 0 0 4.698 1.863h.043c2.019 0 3.863-.885 5.154-2.31v16.478h.003zm.213-29.967l-.244 1.736-.139.989-.678 4.818-.258 1.836a4.107 4.107 0 0 1-4.627 3.485 4.085 4.085 0 0 1-3.416-3.172c-.01-.047-.027-.09-.035-.136-.004-.016-.01-.028-.012-.043a4.003 4.003 0 0 1-.024-1.275l.846-6.01.474-3.372c.035-.26.1-.521.188-.768a3.85 3.85 0 0 1 .186-.448c.029-.058.064-.108.097-.163.701-1.294 2.063-2.146 3.567-2.146h.013c.188 0 .381.012.576.04h.002a4.1 4.1 0 0 1 3.484 4.629z"></path></g><!----><g data-v-d3f97b9e="" id="ba1a487d-712b-4ee1-86eb-346f757cc40a" fill="white" transform="matrix(0.4067838015355483,0,0,0.4067838015355483,82.74441281330259,59.1457528900862)"><path d="M2.18 7.92L5.40 7.92L7.64 11.48L8.89 11.48L6.45 7.74C7.49 7.50 8.69 6.90 8.69 5.11C8.69 3.35 7.48 2.21 5.57 2.21L1.13 2.21L1.13 11.48L2.18 11.48ZM2.18 3.21L5.45 3.21C6.76 3.21 7.64 3.93 7.64 5.11C7.64 6.55 6.38 6.93 5.39 6.93L2.18 6.93ZM21.62 2.10C18.80 2.10 16.91 4.21 16.91 6.85C16.91 9.48 18.80 11.59 21.62 11.59C24.43 11.59 26.32 9.48 26.32 6.85C26.32 4.21 24.43 2.10 21.62 2.10ZM21.62 10.57C19.36 10.57 17.96 8.93 17.96 6.85C17.96 4.76 19.36 3.12 21.62 3.12C23.87 3.12 25.27 4.76 25.27 6.85C25.27 8.93 23.87 10.57 21.62 10.57ZM38.98 10.57C36.72 10.57 35.46 8.93 35.46 6.85C35.46 4.76 36.72 3.12 38.98 3.12C40.50 3.12 41.51 3.85 41.99 4.98L43.09 4.98C42.50 3.29 40.99 2.10 38.89 2.10C36.11 2.10 34.41 4.21 34.41 6.85C34.41 9.48 36.11 11.59 38.89 11.59C40.99 11.59 42.50 10.40 43.09 8.71L41.99 8.71C41.51 9.84 40.50 10.57 38.98 10.57ZM59.35 2.21L57.86 2.21L52.71 7.04L52.71 2.21L51.66 2.21L51.66 11.48L52.71 11.48L52.71 8.44L54.63 6.65L58.25 11.48L59.57 11.48L55.40 5.94ZM66.65 13.34L67.61 13.34L68.84 10.36L67.47 10.36ZM88.75 8.18L91.87 8.18C93.84 8.18 95.06 7.03 95.06 5.19C95.06 3.37 93.84 2.21 91.87 2.21L87.70 2.21L87.70 11.48L88.75 11.48ZM91.80 3.21C93.25 3.21 94.01 3.96 94.01 5.19C94.01 6.44 93.25 7.20 91.80 7.20L88.75 7.20L88.75 3.21ZM107.16 2.21L105.84 2.21L101.91 11.48L103.07 11.48L104.20 8.79L108.79 8.79L109.93 11.48L111.09 11.48ZM104.61 7.83L106.50 3.30L108.39 7.83ZM120.32 8.18L123.44 8.18C125.41 8.18 126.63 7.03 126.63 5.19C126.63 3.37 125.41 2.21 123.44 2.21L119.27 2.21L119.27 11.48L120.32 11.48ZM123.37 3.21C124.82 3.21 125.58 3.96 125.58 5.19C125.58 6.44 124.82 7.20 123.37 7.20L120.32 7.20L120.32 3.21ZM141.88 3.22L141.88 2.21L135.06 2.21L135.06 11.48L141.88 11.48L141.88 10.47L136.11 10.47L136.11 7.35L141.26 7.35L141.26 6.33L136.11 6.33L136.11 3.22ZM151.62 7.92L154.84 7.92L157.08 11.48L158.33 11.48L155.89 7.74C156.93 7.50 158.13 6.90 158.13 5.11C158.13 3.35 156.91 2.21 155.01 2.21L150.57 2.21L150.57 11.48L151.62 11.48ZM151.62 3.21L154.88 3.21C156.20 3.21 157.08 3.93 157.08 5.11C157.08 6.55 155.82 6.93 154.83 6.93L151.62 6.93ZM165.96 13.34L166.91 13.34L168.14 10.36L166.77 10.36ZM187.61 4.65C187.61 4.03 187.98 3.08 190.08 3.08C191.77 3.08 192.56 3.82 192.67 4.75L193.75 4.75C193.66 3.36 192.54 2.10 190.08 2.10C187.75 2.10 186.59 3.15 186.59 4.66C186.59 7.84 192.93 6.69 192.93 8.96C192.93 10.05 191.95 10.60 190.39 10.60C188.78 10.60 187.47 10.05 187.40 8.71L186.31 8.71C186.45 10.37 187.57 11.59 190.32 11.59C192.60 11.59 193.98 10.64 193.98 8.92C193.98 5.68 187.61 6.80 187.61 4.65ZM206.58 10.57C204.33 10.57 203.07 8.93 203.07 6.85C203.07 4.76 204.33 3.12 206.58 3.12C208.11 3.12 209.12 3.85 209.59 4.98L210.70 4.98C210.11 3.29 208.60 2.10 206.50 2.10C203.71 2.10 202.02 4.21 202.02 6.85C202.02 9.48 203.71 11.59 206.50 11.59C208.60 11.59 210.11 10.40 210.70 8.71L209.59 8.71C209.12 9.84 208.11 10.57 206.58 10.57ZM220.32 2.21L219.27 2.21L219.27 11.48L220.32 11.48ZM230.20 4.65C230.20 4.03 230.57 3.08 232.67 3.08C234.36 3.08 235.14 3.82 235.26 4.75L236.33 4.75C236.25 3.36 235.13 2.10 232.67 2.10C230.34 2.10 229.18 3.15 229.18 4.66C229.18 7.84 235.52 6.69 235.52 8.96C235.52 10.05 234.54 10.60 232.97 10.60C231.36 10.60 230.06 10.05 229.99 8.71L228.90 8.71C229.04 10.37 230.16 11.59 232.90 11.59C235.19 11.59 236.57 10.64 236.57 8.92C236.57 5.68 230.20 6.80 230.20 4.65ZM245.81 4.65C245.81 4.03 246.18 3.08 248.28 3.08C249.97 3.08 250.75 3.82 250.87 4.75L251.94 4.75C251.86 3.36 250.74 2.10 248.28 2.10C245.95 2.10 244.79 3.15 244.79 4.66C244.79 7.84 251.13 6.69 251.13 8.96C251.13 10.05 250.15 10.60 248.58 10.60C246.97 10.60 245.67 10.05 245.60 8.71L244.51 8.71C244.65 10.37 245.77 11.59 248.51 11.59C250.80 11.59 252.18 10.64 252.18 8.92C252.18 5.68 245.81 6.80 245.81 4.65ZM264.92 2.10C262.11 2.10 260.22 4.21 260.22 6.85C260.22 9.48 262.11 11.59 264.92 11.59C267.74 11.59 269.63 9.48 269.63 6.85C269.63 4.21 267.74 2.10 264.92 2.10ZM264.92 10.57C262.67 10.57 261.27 8.93 261.27 6.85C261.27 4.76 262.67 3.12 264.92 3.12C267.18 3.12 268.58 4.76 268.58 6.85C268.58 8.93 267.18 10.57 264.92 10.57ZM279.36 7.92L282.58 7.92L284.82 11.48L286.06 11.48L283.63 7.74C284.66 7.50 285.87 6.90 285.87 5.11C285.87 3.35 284.65 2.21 282.74 2.21L278.31 2.21L278.31 11.48L279.36 11.48ZM279.36 3.21L282.62 3.21C283.93 3.21 284.82 3.93 284.82 5.11C284.82 6.55 283.56 6.93 282.56 6.93L279.36 6.93ZM295.29 4.65C295.29 4.03 295.65 3.08 297.75 3.08C299.45 3.08 300.23 3.82 300.34 4.75L301.42 4.75C301.34 3.36 300.22 2.10 297.75 2.10C295.43 2.10 294.27 3.15 294.27 4.66C294.27 7.84 300.61 6.69 300.61 8.96C300.61 10.05 299.63 10.60 298.06 10.60C296.45 10.60 295.15 10.05 295.08 8.71L293.99 8.71C294.13 10.37 295.25 11.59 297.99 11.59C300.27 11.59 301.66 10.64 301.66 8.92C301.66 5.68 295.29 6.80 295.29 4.65Z"></path></g></svg>